<svg xmlns="http://www.w3.org/2000/svg" width="250" height="18" viewBox="0 0 250 18">
    <g fill="#FFF" fill-rule="nonzero">
        <path d="M82.103 8.46c-.922-.81-2.306-1.26-3.966-1.44l-4.06-.27c-.83-.09-1.476-.27-1.937-.54-.461-.27-.646-.63-.646-1.17 0-.63.37-1.08 1.015-1.44.738-.36 1.66-.54 2.768-.54 1.015 0 2.03.18 3.044.54.923.36 1.753.81 2.49 1.44l2.03-2.34A11.383 11.383 0 0 0 79.428.81C78.137.36 76.845.18 75.369.18s-2.768.18-3.875.63c-1.107.45-1.937.99-2.583 1.8-.645.81-.922 1.62-.922 2.7 0 1.26.461 2.25 1.384 3.06.922.81 2.306 1.26 3.966 1.35l4.06.27c.83.09 1.568.27 2.029.63.461.36.738.72.738 1.26 0 .72-.369 1.26-1.107 1.71-.738.45-1.845.63-3.229.63-1.291 0-2.398-.18-3.598-.63-1.107-.45-2.029-.99-2.86-1.8l-2.029 2.25c1.015.99 2.306 1.71 3.782 2.25s2.952.81 4.613.81c1.568 0 2.952-.27 4.151-.72 1.2-.45 2.122-1.08 2.768-1.98.646-.81.922-1.8.922-2.88 0-1.26-.46-2.25-1.476-3.06zM59.317.45h3.321v16.29h-3.321zM25.185 0l-9.502 16.74h3.597l1.384-2.43h9.318l1.383 2.43h3.69L25.37 0h-.184zM22.14 11.52l3.137-5.58 3.136 5.58H22.14zM14.483 2.16C13.376.99 11.716.45 9.41.45H0v16.29h3.321v-5.13H9.41c2.214 0 3.874-.54 5.073-1.71 1.015-.99 1.569-2.34 1.569-3.87 0-1.53-.554-2.79-1.569-3.87zm-2.398 5.67c-.277.27-.646.54-1.015.63-.461.18-1.015.27-1.753.27H3.321V3.42h5.996c.738 0 1.292.09 1.753.27.461.18.83.36 1.107.72.37.45.646 1.08.646 1.71 0 .63-.37 1.17-.738 1.71zM52.214 13.5c-.553-.18-1.107-.45-1.476-.63-.461-.27-.923-.63-1.476-1.08-.554-.45-.923-.72-1.2-.9 1.2 0 2.123-.27 3.045-.72a5.273 5.273 0 0 0 1.937-1.8c.462-.81.646-1.62.646-2.52 0-.81-.184-1.44-.461-2.16a5.273 5.273 0 0 0-1.2-1.71C50.924.99 49.447.45 47.51.45h-9.594v16.29h3.321v-5.67h1.2c.645 0 1.29.18 1.752.54.554.36 1.2.9 2.03 1.62.83.72 1.568 1.35 2.214 1.8.645.45 1.383.81 2.306 1.17.923.36 2.03.54 3.229.54h.553v-2.97h-.276c-.83 0-1.476-.09-2.03-.27zM41.236 8.28V3.42h6.089c1.107 0 1.845.27 2.306.81.461.45.646.99.646 1.62 0 .72-.185 1.26-.646 1.62-.554.54-1.292.81-2.306.81h-6.089zM237.27 13.86V9.99h8.763V7.02h-8.764v-3.6h11.255V.45h-14.668v16.29h15.314v-2.88zM215.221 3.42h6.181v13.32h3.321V3.42h6.181V.45h-15.683zM196.956 3.42h6.18v13.32h3.322V3.42h6.088V.45h-15.59zM170.941 9.54c0 .9-.185 1.71-.646 2.34-.369.72-1.015 1.26-1.753 1.62-.738.36-1.568.54-2.49.54-.923 0-1.753-.18-2.491-.54-.738-.36-1.292-.9-1.753-1.62-.369-.72-.646-1.44-.646-2.34V.45h-3.32v9.09c0 1.44.368 2.79 1.014 3.96s1.66 2.07 2.86 2.7c1.2.63 2.675.99 4.243.99 1.569 0 3.045-.36 4.244-.99 1.2-.63 2.214-1.53 2.86-2.7a7.917 7.917 0 0 0 1.014-3.96V.45h-3.32v9.09h.184zM144.557 10.35h5.72c-.37 1.17-1.015 2.07-2.03 2.79-1.015.72-2.214.99-3.598.99a6.878 6.878 0 0 1-3.044-.72c-.922-.45-1.66-1.08-2.122-1.98-.553-.81-.738-1.8-.738-2.88 0-1.08.277-1.98.738-2.88.554-.81 1.2-1.53 2.122-1.98a6.878 6.878 0 0 1 3.044-.72c1.015 0 2.03.18 3.045.63.922.36 1.752.99 2.49 1.62l2.307-2.16c-.923-.99-2.122-1.71-3.506-2.25S146.125 0 144.65 0c-1.752 0-3.32.36-4.797 1.08-1.383.72-2.583 1.8-3.32 3.06-.83 1.26-1.2 2.7-1.2 4.32s.37 3.06 1.2 4.32c.83 1.26 1.937 2.34 3.32 3.06 1.384.72 3.045 1.08 4.797 1.08 1.753 0 3.321-.36 4.705-1.08 1.384-.72 2.491-1.71 3.321-2.97.83-1.26 1.2-2.7 1.2-4.23V7.47h-9.226v2.88h-.092zM109.779 8.01c1.199-.72 1.845-1.8 1.845-3.24 0-1.08-.37-1.98-1.107-2.79C109.502.9 108.118.45 106.365.45H96.31v16.29h10.517c2.121 0 3.69-.63 4.704-1.89.646-.81 1.015-1.8 1.015-2.97 0-.9-.277-1.71-.738-2.34-.461-.63-1.107-1.17-2.03-1.53zM99.63 3.33h6.55c.83 0 1.384.18 1.753.63.276.36.46.72.46 1.17 0 .45-.184.81-.46 1.17-.37.45-1.015.63-1.753.63h-6.55v-3.6zm9.225 9.72c-.369.54-1.015.81-2.03.81h-7.195V9.9h7.196c.922 0 1.568.27 1.937.81.277.36.369.72.369 1.26.092.36-.092.81-.277 1.08zM123.985 0l-9.594 16.74h3.598l1.384-2.43h9.317l1.384 2.43h3.69L124.17 0h-.185zm-3.136 11.52l3.136-5.58 3.137 5.58h-6.273zM182.472 9.99h8.764V7.02h-8.764v-3.6h11.255V.45H179.15v16.29h15.222v-2.88h-11.9z"/>
    </g>
</svg>
